/vscmnt/brussel_pixiu_data/_data_brussel/112/vsc11236/PredSimResults/SUBJ06mtu3D/worker1.mot
version=1
nRows=4
nColumns=50
inDegrees=yes
endheader
                time	         pelvis_tilt	         pelvis_list	     pelvis_rotation	           pelvis_tx	           pelvis_ty	           pelvis_tz	       hip_flexion_r	     hip_adduction_r	      hip_rotation_r	        knee_angle_r	       ankle_angle_r	         mtp_angle_r	       hip_flexion_l	     hip_adduction_l	      hip_rotation_l	        knee_angle_l	       ankle_angle_l	         mtp_angle_l	    lumbar_extension	      lumbar_bending	     lumbar_rotation	 ercspn_r/activation	 intobl_r/activation	 extobl_r/activation	    abd_r/activation	    add_r/activation	hamstrings_r/activation	bifemsh_r/activation	glut_max_r/activation	iliopsoas_r/activation	rect_fem_r/activation	  vasti_r/activation	gastroc_r/activation	 soleus_r/activation	tib_ant_r/activation	 ercspn_l/activation	 intobl_l/activation	 extobl_l/activation	    abd_l/activation	    add_l/activation	hamstrings_l/activation	bifemsh_l/activation	glut_max_l/activation	iliopsoas_l/activation	rect_fem_l/activation	  vasti_l/activation	gastroc_l/activation	 soleus_l/activation	tib_ant_l/activation	
          1.92579403	         -6.38812757	          3.50622605	         -8.42418537	          2.15688931	          0.92957674	          0.01436187	        -11.00095380	         -3.56478824	          4.52667421	         -8.47509462	         10.19023891	         29.74580969	         29.64723814	          0.36151795	         -3.83731301	         -1.32865901	          4.61084313	          0.21844599	         -4.07953293	         -1.37414138	          0.26544191	          0.06599121	          0.00999999	          0.00999999	          0.05726563	          0.00999999	          0.01340404	          0.13265041	          0.04717192	          0.38439125	          0.02636647	          0.00999999	          0.38589754	          0.33480106	          0.01789086	          0.11929729	          0.18324666	          0.01967287	          0.00999999	          0.08105073	          0.17087278	          0.25051360	          0.01162415	          0.18329776	          0.00999999	          0.00999999	          0.02898387	          0.00999999	          0.36674656	
          1.93863265	         -6.49604050	          3.43036863	         -8.40459364	          2.17429668	          0.92737357	          0.01367297	        -11.32907932	         -3.56927702	          4.01133761	         -9.63609946	          9.43377188	         31.70941592	         29.67665019	          0.51158948	         -3.59959570	         -2.84648254	          4.12157582	          0.21854859	         -3.75050217	         -1.64159990	          0.53271043	          0.09134896	          0.00999999	          0.00999999	          0.04717192	          0.03937360	          0.01812111	          0.10926929	          0.03885734	          0.39101076	          0.02171909	          0.01362267	          0.35690895	          0.31292155	          0.01473739	          0.09826980	          0.18861539	          0.01620531	          0.00999999	          0.10973688	          0.15457789	          0.20635776	          0.03793815	          0.15098947	          0.00999999	          0.00999999	          0.02875616	          0.01903587	          0.37735714	
          1.95147128	         -6.58545369	          3.35592234	         -8.32527311	          2.19204211	          0.92542611	          0.01289873	        -11.53821480	         -3.56718057	          3.46123221	        -11.06767699	          8.50970030	         33.72112911	         29.56896755	          0.65630110	         -3.37075371	         -4.35830336	          3.60003678	          0.20645594	         -3.40928297	         -1.92974882	          0.78995716	          0.09326982	          0.00999999	          0.00999999	          0.03885734	          0.03243356	          0.01492711	          0.09000935	          0.03200830	          0.39249673	          0.01789085	          0.02636647	          0.32489501	          0.28693824	          0.01213976	          0.08705965	          0.16039406	          0.01334894	          0.05674506	          0.09039453	          0.14029185	          0.16998489	          0.07478924	          0.12437588	          0.00999999	          0.00999999	          0.02368756	          0.01568058	          0.45866278	
          1.96430991	         -6.65847087	          3.27466166	         -8.18664314	          2.20985055	          0.92397521	          0.01202439	        -11.53533510	         -3.54719400	          2.88265447	        -12.88493311	          7.36138436	         35.76249150	         29.36136548	          0.81253192	         -3.18121655	         -5.67270865	          2.86528801	          0.17966852	         -3.08807580	         -2.22706465	          1.03131093	          0.12764399	          0.00999999	          0.00999999	          0.03200830	          0.04556481	          0.02240949	          0.07414419	          0.02636648	          0.38754000	          0.01473739	          0.02171909	          0.26881926	          0.23656905	          0.00999999	          0.09864797	          0.13212280	          0.01099604	          0.11681314	          0.14296988	          0.12331021	          0.14002314	          0.11651753	          0.10245323	          0.00999999	          0.00999999	          0.01951236	          0.01291670	          0.50286165	
